<?xml version="1.0" encoding="UTF-8"?>
<!DOCTYPE svg PUBLIC "-//W3C//DTD SVG 1.1//EN" "http://www.w3.org/Graphics/SVG/1.1/DTD/svg11.dtd">
<!-- Creator: CorelDRAW 2020 (64 Bit) -->
<svg xmlns="http://www.w3.org/2000/svg" xml:space="preserve" width="15103px" height="4121px" version="1.1" style="shape-rendering:geometricPrecision; text-rendering:geometricPrecision; image-rendering:optimizeQuality; fill-rule:evenodd; clip-rule:evenodd"
viewBox="0 0 20924 5708.61"
 xmlns:xlink="http://www.w3.org/1999/xlink"
 xmlns:xodm="http://www.corel.com/coreldraw/odm/2003">
 <defs>
  <style type="text/css">
   <![CDATA[
    .fil0 {fill:#000;fill-rule:nonzero}
    .fil1 {fill:#000;fill-rule:nonzero}
   ]]>
  </style>
 </defs>
 <g id="Camada_x0020_1">
  <metadata id="CorelCorpID_0Corel-Layer"/>
  <path class="fil0" d="M3209.22 1546.24c385.52,0 758.55,27.44 1104.11,77.98 356.33,52.11 682.94,128.83 963.6,225.41 338.42,116.49 614.06,264.48 807.24,424.61 215.28,178.45 334.08,377.32 334.08,574.27 0,204.41 -126.44,413.34 -356.77,600.57 -205.5,167.04 -497.95,321.1 -857.93,440.32 -268.37,88.9 -579.22,156.82 -916.2,202.74 -340.71,46.43 -705.73,70.17 -1078.13,70.17 -387.2,0 -765.96,-22.93 -1118.04,-70.28 -337.54,-45.41 -648.66,-113.31 -917.13,-205.06 -347.28,-118.69 -629.02,-273.21 -827.38,-440 -224.04,-188.39 -346.67,-397.63 -346.67,-598.46 0,-195.56 114.63,-393.66 325.29,-571.78 187.36,-158.42 455.49,-305.05 788.4,-421.07 282.6,-98.45 613.85,-176.65 974.2,-229.62 351.56,-51.67 731.39,-79.8 1121.33,-79.8zm1064.49 348.95c-331.33,-48.45 -690.89,-74.76 -1064.49,-74.76 -377.96,0 -744.3,27 -1081.7,76.59 -344.98,50.7 -659.1,124.52 -923.86,216.76 -300.25,104.64 -538.67,233.99 -701.65,371.8 -147.54,124.75 -227.82,250.7 -227.82,362.93 0,118.39 87.77,254.76 248.13,389.61 172.72,145.23 424.2,281.88 739.56,389.66 252.48,86.28 546.2,150.29 865.72,193.27 335.98,45.19 702.57,67.07 1081.62,67.07 363.91,0 716.61,-22.65 1041.72,-66.95 318.22,-43.37 612.33,-107.69 866.93,-192.04 328.72,-108.86 591.28,-245.89 771.17,-392.12 164.65,-133.83 255.03,-269.24 255.03,-388.5 0,-111.88 -83.39,-238.03 -234.48,-363.27 -168.56,-139.73 -414.73,-270.8 -721.55,-376.41 -265.46,-91.36 -575.37,-164.07 -914.33,-213.64z"/>
  <path class="fil0" d="M2076.49 2201.42c192.97,-334.7 403.05,-644.16 619.03,-917.67 224.2,-283.91 453.81,-528.63 676.62,-722.48 269.37,-234.43 535.31,-399.11 771.12,-486.68 261.85,-97.24 493.29,-100.79 663.76,-2.49 177.45,102.33 295.46,316.2 342.53,609.03 41.91,260.7 29.18,590.71 -47.45,962.47 -57.6,279.43 -153.81,582.61 -281.45,895.17 -128.62,314.96 -290.69,642.99 -478.7,968.95 -194.81,337.84 -403.82,654.72 -619.01,933.84 -207.56,269.23 -421.91,504.84 -636.11,692.15 -276.73,241.96 -551.16,408.86 -794.05,497.12 -274.53,99.75 -516.94,101.2 -691.24,0.69 -169.61,-97.85 -284.05,-296.04 -333.1,-567.26 -43.73,-241.79 -36.96,-547.15 28.59,-892.78 55.84,-294.47 153.51,-620.52 287.51,-958.81 129.83,-327.76 295.47,-670.72 491.95,-1011.25zm833.24 -748.44c-207.94,263.32 -410.38,561.57 -596.54,884.46 -187.43,324.85 -347.02,655.97 -473.74,975.9 -128.45,324.29 -221.38,633.2 -273.59,908.48 -59.4,313.22 -66.51,584.56 -28.59,794.24 34.42,190.32 103.32,322.81 200.29,378.75 102.19,58.93 264.39,50.78 462.04,-21.03 212.78,-77.31 456.95,-226.81 707.3,-445.71 200.22,-175.09 402.38,-397.66 599.69,-653.59 208.67,-270.67 410.79,-576.99 598.66,-902.78 179.91,-311.92 336.18,-628.7 461.57,-935.75 122.38,-299.69 213.86,-586.67 267.52,-846.98 69.88,-339.01 82.24,-635.3 45.31,-865 -33.73,-209.82 -105.71,-355.81 -208.65,-415.17 -96.98,-55.92 -248.13,-46.67 -432.42,21.77 -204.65,75.99 -441.13,223.87 -686.51,437.41 -213,185.32 -430.99,417.35 -642.34,685z"/>
  <path class="fil0" d="M2077.44 3509.58c-193.01,-333.46 -356.15,-670.17 -485.7,-994.98 -133.77,-335.42 -231.07,-656.44 -287.88,-946.7 -68.67,-351.01 -78.66,-663.6 -36.86,-911.01 46.57,-275.61 159.17,-478.01 329.65,-576.61 177.28,-102.68 421.42,-98.14 698.48,7.24 246.33,93.69 525.87,269.66 810.23,522.15 212.74,188.87 427.38,423.79 635.04,691.28 209.96,270.44 413.26,574.55 600.6,898.22 194.68,336.32 364.81,675.76 499.8,1003.13 129.98,315.22 227.14,618.53 282.12,896.5 71.34,360.35 78.86,681.28 34.01,935.69 -50.75,287.93 -170.69,498.83 -345.03,599.68 -169.6,98.17 -398.39,98.44 -657.63,5.57 -230.75,-82.67 -491.91,-241.22 -759.28,-471.25l-0.54 0c-225.44,-194.06 -458.87,-441.59 -686.23,-728.16 -220.32,-277.7 -434.92,-592.4 -630.78,-930.75zm-231.86 -1095.66c123.88,310.62 281.23,634.91 468.56,958.57 188.85,326.25 395.8,629.72 608.29,897.54 215.68,271.86 437.09,506.64 650.89,690.68l-0.23 0.26c240.89,207.21 472.26,348.62 673.29,420.64 182.36,65.34 331.64,71.88 428.43,15.86 101.94,-58.97 175.77,-203.32 212.22,-410.1 39.31,-223.04 31.72,-509.48 -32.94,-836.09 -51.76,-261.67 -143.39,-547.61 -266.05,-845.08 -129.73,-314.61 -294.42,-642.89 -483.74,-969.94 -181.66,-313.85 -378.07,-607.81 -580.25,-868.23 -197.71,-254.67 -400.45,-476.91 -599.69,-653.79 -258.27,-229.32 -508.79,-387.87 -726.69,-470.75 -198.64,-75.54 -361.07,-86.08 -463.92,-26.51 -96.77,55.96 -164.14,191.33 -196.84,384.9 -36.49,215.91 -26.57,494.8 35.78,813.54 54.13,276.58 146.37,581.26 272.89,898.5z"/>
  <path class="fil1" d="M3078.37 1924.59c-6.77,7.13 -9.8,12.12 -12.12,20.15 -3.39,11.59 -7.84,26.56 -12.48,41.9 -1.61,5.35 -13.19,44.21 -25.85,86.29l-22.82 76.49 -17.3 5.88c-31.38,10.7 -59.55,22.29 -89.68,37.26l-29.95 14.8 -17.83 -9.45c-9.81,-5.17 -27.46,-14.62 -39.23,-20.86 -11.76,-6.42 -26.2,-14.26 -32.09,-17.47 -41.36,-22.29 -78.63,-42.61 -90.04,-49.03 -7.3,-3.92 -17.82,-9.63 -23.35,-12.48l-10.16 -5.17 -19.26 18.01c-10.7,9.98 -56.16,54.91 -101.27,100.02l-81.66 82.01 9.63 17.48c5.35,9.8 13.73,24.78 18.36,33.69 4.64,8.74 11.06,20.5 13.91,25.85 3.03,5.35 10.16,18.37 15.87,28.89 5.7,10.69 15.33,28.35 21.22,39.22 6.06,11.06 14.97,27.81 19.96,37.09 4.82,9.27 9.99,18.54 11.24,20.5 1.42,1.96 2.49,4.63 2.49,6.24 0,1.43 -5.52,13.55 -12.3,26.74 -16.04,31.38 -31.73,68.65 -44.04,104.66 -3.21,8.92 -3.56,9.27 -13.19,12.12 -5.35,1.79 -13.02,4.11 -16.94,5.35 -6.06,1.97 -18.01,5.53 -24.96,7.31 -0.89,0.36 -7.31,2.14 -14.26,4.28 -6.78,2.14 -13.73,4.1 -15.16,4.46 -1.42,0.36 -8.2,2.32 -15.15,4.46 -6.78,2.14 -13.73,4.1 -15.16,4.45 -1.42,0.36 -12.3,3.57 -24.07,7.13 -31.55,9.45 -47.96,14.45 -65.96,19.62 -14.62,4.28 -16.94,5.52 -26.21,14.8l-10.17 10.16 -0.17 126.94c0,122.67 0,127.12 3.38,128.73 1.79,1.07 9.99,3.74 18.19,6.24 8.2,2.32 30.31,8.91 48.85,14.44 18.72,5.53 35.13,10.34 36.55,10.7 1.43,0.35 8.38,2.5 15.16,4.46 19.79,6.06 27.45,8.37 43.68,13.01 20.15,5.88 51.17,15.16 58.12,17.47 4.81,1.43 6.06,3.21 8.74,11.95 14.08,46.89 29.41,85.94 49.03,125.16l12.12 24.25 -9.27 17.83c-5.17,9.62 -14.44,26.92 -20.68,38.15 -6.06,11.23 -14.09,26.03 -17.83,32.98 -3.74,6.78 -11.59,21.22 -17.3,32.1 -17.29,31.56 -33.34,61.33 -42.07,77.73l-8.2 15.16 90.93 90.93 90.75 90.75 10.34 -5.17c5.52,-3.04 16.22,-8.74 23.53,-12.66 14.62,-8.2 72.92,-39.94 95.39,-51.89 7.84,-4.27 23.89,-12.83 35.66,-19.43 11.76,-6.42 27.1,-14.62 34.05,-18.18l12.66 -6.42 31.91 16.04c17.48,8.92 42.79,20.33 55.99,25.5 13.19,5.17 25.67,9.98 27.63,10.87 3.21,1.25 31.2,10.17 41.19,13.2 2.49,0.53 4.45,3.39 5.7,7.66 3.21,11.24 11.77,40.65 19.97,67.22 1.96,6.78 4.1,13.73 4.46,15.15 0.53,2.32 12.48,42.8 24.78,83.8 2.32,7.31 7.13,23.54 10.88,36.19l6.77 22.65 128.91 0 128.9 0 9.81 -11.77c5.52,-6.42 9.98,-12.12 10.16,-12.84 0.18,-2.31 1.43,-6.59 5.17,-19.07 2.14,-6.96 4.1,-13.73 4.46,-15.16 0.35,-1.42 2.32,-8.38 4.45,-15.15 2.14,-6.96 4.1,-13.73 4.46,-15.16 0.36,-1.42 2.32,-7.84 4.28,-14.26 1.96,-6.42 11.23,-37.62 20.68,-69.53 9.45,-31.92 17.83,-59.2 18.72,-60.62 0.72,-1.43 8.56,-5 17.3,-7.85 27.81,-8.91 64.72,-24.42 97.7,-40.83l32.09 -16.04 9.81 5.17c5.35,2.85 21.04,11.23 34.77,18.72 22.28,12.12 36.19,19.61 79.34,42.97 6.42,3.56 21.21,11.59 32.98,17.83 11.77,6.41 28.35,15.33 36.73,19.79 8.38,4.63 16.4,8.38 18.01,8.38 3.21,0 199.33,-196.66 199.33,-200.05 0,-1.25 -2.14,-5.88 -4.64,-10.34 -2.49,-4.46 -8.02,-14.44 -12.3,-22.28 -4.1,-7.85 -12.66,-23.54 -18.72,-34.77 -6.24,-11.23 -24.61,-45.46 -41.01,-75.95 -16.58,-30.31 -31.56,-58.13 -33.7,-61.51 -1.96,-3.39 -3.74,-7.31 -3.74,-8.92 0,-1.6 4.81,-12.3 10.7,-23.71 9.45,-18.54 19.43,-41.01 27.81,-62.58 1.61,-3.92 3.39,-8.38 4.1,-9.81 0.71,-1.42 4.46,-12.3 8.2,-24.07 3.75,-11.76 7.67,-22.28 8.74,-23.53 1.07,-1.07 9.27,-4.1 18.01,-6.78 26.38,-7.84 31.55,-9.27 44.57,-13.37 6.95,-1.96 13.73,-4.1 15.15,-4.46 1.43,-0.35 8.38,-2.31 15.16,-4.45 6.95,-2.14 13.73,-4.1 15.15,-4.46 1.43,-0.36 8.38,-2.32 15.16,-4.46 6.95,-2.14 13.73,-4.1 15.15,-4.45 1.43,-0.36 12.31,-3.57 24.07,-7.14 11.77,-3.56 28.17,-8.38 36.37,-10.69 13.2,-3.75 16.23,-5.35 24.61,-13.73l9.45 -9.27 0 -128.73 0 -128.73 -11.06 -3.74c-10.52,-3.39 -57.94,-17.47 -63.83,-18.9 -1.42,-0.36 -8.2,-2.49 -15.15,-4.46 -18.72,-5.7 -26.92,-8.2 -44.57,-13.37 -8.74,-2.67 -22.47,-6.59 -30.31,-8.91 -7.85,-2.32 -21.04,-6.24 -29.42,-8.74 -8.38,-2.32 -20.33,-5.88 -26.74,-8.02l-11.59 -3.57 -6.06 -18.36c-11.95,-37.62 -34.77,-90.39 -52.24,-121.95l-8.03 -14.27 14.27 -25.85c7.66,-14.08 17.65,-32.45 22.1,-40.83 10.17,-18.9 39.76,-73.63 64.19,-118.56 4.28,-7.85 9.09,-16.94 10.7,-20.15l3.03 -5.88 -88.97 -88.97c-49.03,-49.03 -90.39,-89.14 -91.82,-89.14 -1.6,0 -4.28,1.07 -6.24,2.31 -1.96,1.43 -10.34,6.06 -18.72,10.52 -16.05,8.56 -45.11,24.25 -79.7,43.15 -11.59,6.24 -25.85,13.91 -31.73,17.11 -16.41,8.74 -30.13,16.23 -53.85,29.25l-21.57 11.76 -28.35 -14.08c-34.23,-17.12 -59.01,-27.28 -93.25,-38.51 -14.26,-4.64 -27.45,-9.1 -29.59,-9.81 -2.68,-1.07 -4.64,-5.17 -7.67,-15.33 -5.88,-20.86 -10.7,-36.91 -28.7,-96.99 -9.1,-29.96 -18.19,-60.8 -20.51,-68.65 -2.31,-7.84 -5.88,-19.96 -8.02,-26.74 -2.14,-6.95 -4.1,-13.91 -4.46,-15.69 -0.35,-1.6 -1.24,-3.92 -1.78,-4.81 -0.71,-1.25 -46.36,-1.79 -129.98,-1.79l-128.9 0 -8.74 9.28 0 -0.01zm128.55 518.03c226.72,0 410.52,183.79 410.52,410.52 0,226.72 -183.8,410.51 -410.52,410.51 -226.72,0 -410.51,-183.79 -410.51,-410.51 0,-226.73 183.79,-410.52 410.51,-410.52z"/>
  <path class="fil1" d="M9545.2 1776.83l-1321.34 0 0 -404.71c0,-189.09 -17.29,-310.15 -50.73,-362.04 -33.44,-51.88 -88.78,-77.25 -167.19,-77.25 -85.32,0 -149.89,34.59 -193.7,104.92 -43.82,69.18 -65.72,174.11 -65.72,315.93 0,182.17 25.36,319.38 74.94,411.62 48.43,91.09 182.18,202.93 402.4,334.37 630.69,377.03 1028.48,687.19 1192.21,928.17 164.88,240.98 246.74,629.54 246.74,1164.53 0,389.72 -46.12,676.82 -137.21,862.45 -91.08,184.48 -266.34,338.99 -528.07,463.51 -260.58,125.68 -563.82,187.94 -910.88,187.94 -380.49,0 -704.48,-72.64 -974.29,-216.77 -268.65,-144.12 -443.9,-327.45 -528.07,-549.98 -83.02,-223.68 -124.53,-540.76 -124.53,-950.07l0 -358.59 1321.35 0 0 665.29c0,205.23 18.44,336.67 55.34,395.48 36.9,58.8 102.62,87.63 197.17,87.63 94.54,0 164.87,-36.9 210.99,-111.85 46.12,-73.79 69.18,-184.48 69.18,-329.76 0,-321.68 -43.81,-532.69 -131.44,-630.69 -91.09,-99.16 -312.46,-265.19 -665.28,-498.1 -352.82,-234.06 -585.73,-404.7 -701.03,-510.78 -114.15,-106.08 -209.85,-252.51 -284.79,-439.3 -74.95,-186.78 -113,-425.45 -113,-716.01 0,-418.54 53.04,-725.24 160.27,-918.95 107.23,-193.7 279.03,-344.75 517.7,-454.28 238.67,-109.53 525.77,-163.73 863.6,-163.73 368.96,0 682.58,59.96 943.16,178.72 259.43,119.91 431.22,269.8 515.39,451.98 84.17,181.02 126.83,488.87 126.83,923.55l0 216.77z"/>
  <path id="1" class="fil1" d="M10097.04 116.5l1006.57 0c671.05,0 1125.34,25.37 1362.85,77.25 237.52,51.89 431.23,184.48 581.12,397.79 149.89,212.15 224.84,552.29 224.84,1018.1 0,425.46 -53.04,711.41 -159.12,857.84 -104.92,146.43 -313.62,234.06 -624.93,262.88 281.34,70.34 471.58,163.73 568.43,281.34 96.86,116.45 156.81,224.83 179.87,322.84 24.22,98 35.75,367.81 35.75,809.41l0 1444.71 -1321.35 0 0 -1820.59c0,-292.86 -23.06,-473.89 -69.18,-544.22 -44.97,-70.33 -164.88,-104.92 -359.74,-104.92l0 2469.73 -1425.11 0 0 -5472.16zm1425.11 933.94l0 1217.57c159.12,0 269.81,-21.91 333.22,-65.72 63.42,-43.82 95.7,-186.79 95.7,-427.77l0 -300.93c0,-174.11 -31.13,-288.25 -92.24,-342.44 -61.11,-54.2 -174.1,-80.71 -336.68,-80.71z"/>
  <path id="2" class="fil1" d="M17064.2 2136.57l-1425.12 0 0 -496.95c0,-313.62 -12.68,-509.63 -39.2,-588.03 -26.52,-79.56 -89.94,-118.76 -189.09,-118.76 -85.33,0 -144.13,33.44 -175.26,101.46 -31.13,66.88 -46.12,240.98 -46.12,520.01l0 2624.24c0,244.44 14.99,407.01 46.12,484.26 31.13,77.25 92.24,116.46 184.48,116.46 101.47,0 169.49,-43.82 206.39,-131.45 35.74,-87.63 54.19,-259.42 54.19,-514.24l0 -647.99 -276.72 0 0 -830.16 1660.33 0 0 2933.24 -895.89 0 -131.44 -392.02c-96.85,169.49 -219.07,296.32 -365.5,381.65 -147.59,85.32 -321.69,127.98 -521.16,127.98 -238.67,0 -461.2,-57.65 -669.9,-174.1 -207.54,-116.46 -365.5,-259.43 -472.73,-431.23 -108.38,-170.64 -175.26,-350.51 -202.93,-538.45 -26.52,-187.94 -40.35,-470.43 -40.35,-846.31l0 -1625.73c0,-522.32 27.67,-901.65 84.16,-1138.02 56.5,-237.52 217.92,-454.28 484.27,-651.45 266.34,-197.16 611.09,-295.17 1034.24,-295.17 416.24,0 760.99,85.33 1035.4,257.12 274.42,171.8 454.28,374.73 537.3,609.94 83.02,236.37 124.53,577.66 124.53,1027.33l0 236.37z"/>
  <path id="3" class="fil1" d="M20924 2503.22l-1425.11 0 0 -950.07c0,-276.73 -14.99,-448.52 -44.97,-517.7 -29.98,-68.03 -96.85,-102.62 -199.47,-102.62 -115.3,0 -189.09,41.51 -220.22,124.52 -31.13,84.17 -47.27,264.04 -47.27,540.76l0 2538.92c0,266.34 16.14,439.3 47.27,521.16 31.13,80.71 101.46,121.07 209.84,121.07 104.93,0 174.11,-40.36 206.39,-122.22 32.29,-80.71 48.43,-272.11 48.43,-573.05l0 -688.34 1425.11 0 0 213.3c0,567.28 -40.35,969.68 -119.91,1206.05 -79.56,237.52 -257.12,445.06 -530.38,623.77 -274.42,178.72 -611.09,267.5 -1012.34,267.5 -416.23,0 -759.83,-74.94 -1030.79,-225.99 -269.8,-151.04 -449.67,-359.74 -537.3,-627.23 -87.62,-267.5 -131.44,-668.75 -131.44,-1204.89l0 -1598.07c0,-394.33 13.84,-689.5 40.36,-886.66 27.67,-197.16 107.23,-387.41 242.13,-569.58 133.75,-182.18 319.38,-326.3 556.9,-431.23 237.52,-104.92 510.78,-156.81 819.79,-156.81 418.54,0 764.44,80.71 1037.7,243.29 272.11,161.42 450.83,363.19 537.3,605.33 85.32,242.13 127.98,618.01 127.98,1128.79l0 520z"/>
 </g>
</svg>
