<?xml version="1.0" encoding="UTF-8"?>
<!DOCTYPE svg PUBLIC "-//W3C//DTD SVG 1.1//EN" "http://www.w3.org/Graphics/SVG/1.1/DTD/svg11.dtd">
<!-- Creator: CorelDRAW 2020 (64 Bit) -->
<svg xmlns="http://www.w3.org/2000/svg" xml:space="preserve" width="5832px" height="6775px" version="1.1" style="shape-rendering:geometricPrecision; text-rendering:geometricPrecision; image-rendering:optimizeQuality; fill-rule:evenodd; clip-rule:evenodd"
viewBox="0 0 1216.9 1413.85"
 xmlns:xlink="http://www.w3.org/1999/xlink"
 xmlns:xodm="http://www.corel.com/coreldraw/odm/2003">
 <defs>
  <style type="text/css">
   <![CDATA[
    .fil0 {fill:#00D8FF;fill-rule:nonzero}
    .fil1 {fill:#00D8FF;fill-rule:nonzero}
   ]]>
  </style>
 </defs>
 <g id="Camada_x0020_1">
  <metadata id="CorelCorpID_0Corel-Layer"/>
  <path class="fil0" d="M607.8 232.9c58.07,0 114.26,4.13 166.31,11.75 53.67,7.85 102.87,19.4 145.14,33.95 50.98,17.55 92.5,39.84 121.59,63.96 32.43,26.87 50.32,56.83 50.32,86.49 0,30.79 -19.04,62.27 -53.73,90.47 -30.96,25.16 -75.01,48.36 -129.23,66.32 -40.42,13.39 -87.24,23.62 -138,30.54 -51.32,6.99 -106.3,10.57 -162.4,10.57 -58.32,0 -115.37,-3.46 -168.4,-10.59 -50.84,-6.84 -97.7,-17.07 -138.14,-30.89 -52.31,-17.87 -94.75,-41.15 -124.62,-66.27 -33.75,-28.38 -52.22,-59.9 -52.22,-90.15 0,-29.45 17.26,-59.29 48.99,-86.12 28.22,-23.86 68.61,-45.95 118.76,-63.42 42.56,-14.83 92.46,-26.61 146.74,-34.59 52.95,-7.78 110.16,-12.02 168.89,-12.02zm160.34 52.56c-49.9,-7.3 -104.06,-11.26 -160.34,-11.26 -56.93,0 -112.1,4.07 -162.93,11.54 -51.96,7.63 -99.27,18.75 -139.15,32.65 -45.23,15.76 -81.14,35.24 -105.69,56 -22.22,18.79 -34.31,37.76 -34.31,54.66 0,17.84 13.22,38.38 37.37,58.69 26.02,21.88 63.9,42.46 111.4,58.69 38.03,13 82.27,22.64 130.4,29.11 50.6,6.81 105.82,10.11 162.91,10.11 54.82,0 107.94,-3.41 156.91,-10.09 47.94,-6.53 92.24,-16.22 130.58,-28.92 49.52,-16.4 89.07,-37.04 116.16,-59.07 24.8,-20.15 38.42,-40.55 38.42,-58.52 0,-16.85 -12.56,-35.85 -35.32,-54.71 -25.39,-21.05 -62.47,-40.79 -108.69,-56.7 -39.98,-13.76 -86.66,-24.71 -137.72,-32.18z"/>
  <path class="fil0" d="M437.19 331.59c29.07,-50.42 60.71,-97.03 93.24,-138.23 33.77,-42.76 68.35,-79.62 101.91,-108.82 40.58,-35.31 80.64,-60.12 116.15,-73.31 39.45,-14.64 74.31,-15.18 99.98,-0.37 26.73,15.41 44.51,47.63 51.6,91.73 6.31,39.27 4.39,88.98 -7.15,144.98 -8.68,42.08 -23.17,87.75 -42.39,134.83 -19.38,47.44 -43.79,96.85 -72.11,145.95 -29.34,50.89 -60.82,98.62 -93.24,140.66 -31.26,40.55 -63.55,76.04 -95.81,104.25 -41.68,36.45 -83.02,61.59 -119.6,74.88 -41.35,15.03 -77.87,15.24 -104.12,0.1 -25.55,-14.73 -42.79,-44.59 -50.17,-85.44 -6.59,-36.42 -5.57,-82.41 4.3,-134.47 8.41,-44.36 23.12,-93.47 43.31,-144.42 19.55,-49.37 44.5,-101.03 74.1,-152.32zm125.51 -112.74c-31.33,39.67 -61.82,84.59 -89.86,133.23 -28.23,48.93 -52.27,98.8 -71.36,146.99 -19.34,48.85 -33.34,95.38 -41.2,136.84 -8.95,47.18 -10.02,88.05 -4.31,119.63 5.18,28.67 15.56,48.63 30.17,57.05 15.39,8.88 39.82,7.65 69.59,-3.17 32.05,-11.64 68.83,-34.16 106.54,-67.13 30.16,-26.37 60.61,-59.9 90.33,-98.45 31.43,-40.77 61.87,-86.91 90.17,-135.98 27.1,-46.98 50.64,-94.7 69.52,-140.95 18.44,-45.14 32.22,-88.36 40.3,-127.57 10.52,-51.07 12.39,-95.69 6.82,-130.29 -5.08,-31.61 -15.92,-53.6 -31.42,-62.54 -14.61,-8.42 -37.38,-7.03 -65.14,3.28 -30.82,11.45 -66.44,33.72 -103.4,65.89 -32.09,27.91 -64.92,62.86 -96.75,103.17z"/>
  <path class="fil0" d="M437.33 528.63c-29.07,-50.23 -53.64,-100.95 -73.16,-149.87 -20.15,-50.52 -34.8,-98.88 -43.36,-142.6 -10.34,-52.87 -11.85,-99.95 -5.55,-137.22 7.01,-41.51 23.97,-72 49.65,-86.85 26.71,-15.46 63.48,-14.78 105.21,1.09 37.1,14.11 79.21,40.62 122.04,78.65 32.05,28.45 64.38,63.83 95.65,104.12 31.63,40.74 62.25,86.55 90.47,135.3 29.32,50.66 54.95,101.79 75.28,151.1 19.58,47.47 34.21,93.16 42.5,135.03 10.74,54.28 11.87,102.62 5.12,140.94 -7.65,43.37 -25.71,75.13 -51.97,90.33 -25.55,14.78 -60.01,14.82 -99.06,0.83 -34.75,-12.45 -74.09,-36.33 -114.36,-70.98l-0.08 0c-33.96,-29.23 -69.12,-66.51 -103.37,-109.68 -33.18,-41.83 -65.51,-89.23 -95.01,-140.19zm-34.92 -165.03c18.66,46.78 42.36,95.63 70.57,144.38 28.45,49.14 59.62,94.85 91.63,135.19 32.48,40.95 65.83,76.31 98.04,104.03l-0.04 0.04c36.29,31.22 71.14,52.52 101.42,63.36 27.46,9.84 49.95,10.83 64.53,2.39 15.35,-8.88 26.47,-30.62 31.96,-61.77 5.93,-33.6 4.78,-76.74 -4.96,-125.93 -7.79,-39.42 -21.6,-82.49 -40.07,-127.3 -19.54,-47.38 -44.35,-96.83 -72.86,-146.09 -27.37,-47.28 -56.95,-91.55 -87.4,-130.78 -29.78,-38.36 -60.32,-71.83 -90.33,-98.48 -38.9,-34.54 -76.64,-58.42 -109.46,-70.9 -29.92,-11.38 -54.39,-12.97 -69.88,-4 -14.57,8.43 -24.72,28.82 -29.65,57.98 -5.49,32.52 -4,74.53 5.39,122.54 8.16,41.66 22.05,87.55 41.11,135.34z"/>
  <path class="fil1" d="M588.1 289.89c-1.02,1.07 -1.48,1.83 -1.83,3.04 -0.51,1.74 -1.18,4 -1.88,6.31 -0.24,0.8 -1.99,6.66 -3.89,12.99l-3.44 11.52 -2.61 0.89c-4.72,1.61 -8.97,3.36 -13.5,5.61l-4.52 2.23 -2.68 -1.42c-1.48,-0.78 -4.14,-2.2 -5.91,-3.14 -1.77,-0.97 -3.95,-2.15 -4.83,-2.63 -6.23,-3.36 -11.85,-6.42 -13.56,-7.39 -1.11,-0.59 -2.69,-1.45 -3.52,-1.88l-1.53 -0.78 -2.9 2.71c-1.62,1.51 -8.46,8.28 -15.26,15.07l-12.3 12.35 1.45 2.64c0.81,1.47 2.07,3.73 2.77,5.07 0.7,1.32 1.66,3.09 2.09,3.89 0.46,0.81 1.53,2.77 2.39,4.36 0.86,1.61 2.31,4.27 3.2,5.9 0.91,1.67 2.26,4.19 3.01,5.59 0.72,1.4 1.5,2.79 1.69,3.09 0.21,0.29 0.38,0.7 0.38,0.94 0,0.21 -0.84,2.04 -1.86,4.03 -2.41,4.72 -4.78,10.33 -6.63,15.76 -0.48,1.34 -0.54,1.4 -1.99,1.83 -0.8,0.26 -1.96,0.61 -2.55,0.8 -0.91,0.3 -2.71,0.83 -3.76,1.1 -0.13,0.06 -1.1,0.32 -2.15,0.65 -1.02,0.32 -2.07,0.61 -2.28,0.67 -0.22,0.05 -1.24,0.35 -2.28,0.67 -1.02,0.32 -2.07,0.62 -2.29,0.67 -0.21,0.05 -1.85,0.54 -3.62,1.08 -4.75,1.42 -7.23,2.17 -9.94,2.95 -2.2,0.64 -2.55,0.83 -3.95,2.23l-1.53 1.53 -0.02 19.12c0,18.48 0,19.15 0.51,19.39 0.27,0.16 1.5,0.56 2.74,0.94 1.23,0.35 4.56,1.34 7.35,2.17 2.82,0.84 5.3,1.56 5.51,1.62 0.21,0.05 1.26,0.37 2.28,0.67 2.98,0.91 4.14,1.26 6.58,1.96 3.04,0.88 7.71,2.28 8.76,2.63 0.72,0.21 0.91,0.48 1.31,1.8 2.12,7.06 4.43,12.94 7.39,18.85l1.82 3.65 -1.39 2.69c-0.78,1.45 -2.18,4.05 -3.12,5.75 -0.91,1.69 -2.12,3.92 -2.68,4.96 -0.57,1.02 -1.75,3.2 -2.61,4.84 -2.6,4.75 -5.02,9.24 -6.34,11.71l-1.23 2.28 13.7 13.7 13.66 13.66 1.56 -0.77c0.83,-0.46 2.45,-1.32 3.55,-1.91 2.2,-1.24 10.98,-6.02 14.36,-7.82 1.19,-0.64 3.6,-1.93 5.38,-2.92 1.77,-0.97 4.08,-2.2 5.12,-2.74l1.91 -0.97 4.81 2.42c2.63,1.34 6.44,3.06 8.43,3.84 1.99,0.78 3.87,1.5 4.16,1.64 0.49,0.18 4.7,1.53 6.21,1.98 0.37,0.08 0.67,0.51 0.86,1.16 0.48,1.69 1.77,6.12 3,10.12 0.3,1.02 0.62,2.07 0.68,2.29 0.08,0.34 1.88,6.44 3.73,12.62 0.35,1.1 1.07,3.54 1.64,5.45l1.02 3.41 19.41 0 19.42 0 1.48 -1.77c0.83,-0.97 1.5,-1.83 1.53,-1.94 0.02,-0.35 0.21,-0.99 0.78,-2.87 0.32,-1.05 0.61,-2.07 0.67,-2.28 0.05,-0.22 0.35,-1.26 0.67,-2.28 0.32,-1.05 0.62,-2.07 0.67,-2.29 0.05,-0.21 0.35,-1.18 0.64,-2.15 0.3,-0.96 1.7,-5.66 3.12,-10.47 1.42,-4.81 2.69,-8.92 2.82,-9.13 0.11,-0.22 1.29,-0.75 2.6,-1.18 4.19,-1.34 9.75,-3.68 14.72,-6.15l4.84 -2.42 1.47 0.78c0.81,0.43 3.17,1.69 5.24,2.82 3.36,1.83 5.45,2.95 11.95,6.47 0.97,0.54 3.2,1.75 4.97,2.69 1.77,0.96 4.27,2.31 5.53,2.98 1.26,0.7 2.47,1.26 2.71,1.26 0.49,0 30.03,-29.62 30.03,-30.13 0,-0.19 -0.33,-0.89 -0.7,-1.56 -0.38,-0.67 -1.21,-2.17 -1.85,-3.36 -0.62,-1.18 -1.91,-3.54 -2.82,-5.23 -0.94,-1.69 -3.71,-6.85 -6.18,-11.44 -2.5,-4.57 -4.75,-8.76 -5.08,-9.27 -0.29,-0.51 -0.56,-1.1 -0.56,-1.34 0,-0.24 0.72,-1.85 1.61,-3.57 1.42,-2.79 2.93,-6.18 4.19,-9.43 0.24,-0.59 0.51,-1.26 0.62,-1.47 0.1,-0.22 0.67,-1.86 1.23,-3.63 0.57,-1.77 1.16,-3.36 1.32,-3.55 0.16,-0.16 1.39,-0.61 2.71,-1.02 3.98,-1.18 4.75,-1.39 6.71,-2.01 1.05,-0.3 2.07,-0.62 2.29,-0.67 0.21,-0.05 1.26,-0.35 2.28,-0.67 1.05,-0.32 2.07,-0.62 2.28,-0.67 0.22,-0.06 1.26,-0.35 2.29,-0.67 1.04,-0.33 2.06,-0.62 2.28,-0.68 0.21,-0.05 1.85,-0.53 3.62,-1.07 1.78,-0.54 4.25,-1.26 5.48,-1.61 1.99,-0.57 2.45,-0.81 3.71,-2.07l1.42 -1.4 0 -19.39 0 -19.38 -1.66 -0.57c-1.59,-0.51 -8.73,-2.63 -9.62,-2.85 -0.21,-0.05 -1.23,-0.37 -2.28,-0.67 -2.82,-0.86 -4.06,-1.23 -6.71,-2.01 -1.32,-0.4 -3.39,-0.99 -4.57,-1.34 -1.18,-0.35 -3.17,-0.94 -4.43,-1.32 -1.26,-0.35 -3.06,-0.89 -4.03,-1.21l-1.74 -0.54 -0.92 -2.76c-1.8,-5.67 -5.23,-13.62 -7.87,-18.37l-1.2 -2.15 2.14 -3.89c1.16,-2.12 2.66,-4.89 3.33,-6.15 1.53,-2.85 5.99,-11.09 9.67,-17.86 0.65,-1.18 1.37,-2.55 1.61,-3.04l0.46 -0.88 -13.4 -13.4c-7.39,-7.39 -13.62,-13.43 -13.83,-13.43 -0.24,0 -0.65,0.16 -0.94,0.35 -0.3,0.21 -1.56,0.91 -2.82,1.58 -2.42,1.29 -6.8,3.66 -12.01,6.5 -1.74,0.94 -3.89,2.1 -4.78,2.58 -2.47,1.32 -4.53,2.44 -8.11,4.4l-3.25 1.78 -4.27 -2.12c-5.15,-2.58 -8.88,-4.11 -14.04,-5.81 -2.15,-0.69 -4.14,-1.36 -4.46,-1.47 -0.4,-0.16 -0.7,-0.78 -1.15,-2.31 -0.89,-3.14 -1.61,-5.56 -4.33,-14.61 -1.37,-4.51 -2.74,-9.16 -3.09,-10.34 -0.34,-1.18 -0.88,-3.01 -1.2,-4.03 -0.33,-1.05 -0.62,-2.09 -0.68,-2.36 -0.05,-0.24 -0.18,-0.59 -0.26,-0.73 -0.11,-0.18 -6.99,-0.27 -19.58,-0.27l-19.42 0 -1.31 1.4 0 0zm19.36 78.03c34.15,0 61.83,27.68 61.83,61.83 0,34.15 -27.68,61.84 -61.83,61.84 -34.15,0 -61.83,-27.69 -61.83,-61.84 0,-34.15 27.68,-61.83 61.83,-61.83z"/>
  <path class="fil1" d="M262.32 1084.2l-110.85 0 0 -33.95c0,-15.86 -1.45,-26.02 -4.25,-30.37 -2.81,-4.35 -7.45,-6.48 -14.03,-6.48 -7.15,0 -12.57,2.9 -16.25,8.8 -3.67,5.8 -5.51,14.61 -5.51,26.5 0,15.29 2.13,26.8 6.29,34.54 4.06,7.64 15.28,17.02 33.75,28.05 52.91,31.63 86.28,57.65 100.02,77.86 13.83,20.22 20.7,52.81 20.7,97.7 0,32.69 -3.87,56.77 -11.51,72.35 -7.64,15.47 -22.34,28.44 -44.3,38.88 -21.86,10.55 -47.3,15.77 -76.42,15.77 -31.92,0 -59.1,-6.1 -81.73,-18.19 -22.54,-12.09 -37.24,-27.47 -44.3,-46.13 -6.97,-18.77 -10.45,-45.37 -10.45,-79.71l0 -30.08 110.85 0 0 55.81c0,17.22 1.55,28.25 4.64,33.18 3.1,4.93 8.61,7.35 16.54,7.35 7.94,0 13.84,-3.1 17.71,-9.38 3.86,-6.19 5.8,-15.48 5.8,-27.67 0,-26.98 -3.68,-44.68 -11.03,-52.91 -7.64,-8.31 -26.21,-22.24 -55.81,-41.78 -29.6,-19.64 -49.14,-33.95 -58.81,-42.85 -9.58,-8.9 -17.6,-21.19 -23.89,-36.85 -6.29,-15.67 -9.48,-35.7 -9.48,-60.07 0,-35.11 4.45,-60.84 13.45,-77.09 8.99,-16.25 23.4,-28.93 43.43,-38.11 20.02,-9.19 44.1,-13.74 72.44,-13.74 30.96,0 57.27,5.03 79.13,14.99 21.76,10.06 36.17,22.64 43.23,37.92 7.06,15.19 10.64,41.01 10.64,77.48l0 18.18z"/>
  <path id="1" class="fil1" d="M308.62 944.92l84.44 0c56.3,0 94.41,2.12 114.33,6.48 19.93,4.35 36.18,15.47 48.75,33.37 12.58,17.8 18.86,46.33 18.86,85.41 0,35.69 -4.45,59.68 -13.34,71.96 -8.81,12.29 -26.31,19.64 -52.43,22.06 23.6,5.9 39.56,13.73 47.69,23.6 8.12,9.77 13.15,18.86 15.08,27.08 2.04,8.22 3,30.86 3,67.9l0 121.2 -110.85 0 0 -152.73c0,-24.57 -1.93,-39.75 -5.8,-45.65 -3.77,-5.9 -13.83,-8.81 -30.18,-8.81l0 207.19 -119.55 0 0 -459.06zm119.55 78.35l0 102.14c13.35,0 22.64,-1.84 27.96,-5.51 5.32,-3.68 8.02,-15.67 8.02,-35.89l0 -25.25c0,-14.6 -2.61,-24.18 -7.73,-28.72 -5.13,-4.55 -14.61,-6.77 -28.25,-6.77z"/>
  <path id="2" class="fil1" d="M893.1 1114.38l-119.55 0 0 -41.69c0,-26.31 -1.07,-42.75 -3.29,-49.33 -2.23,-6.67 -7.55,-9.96 -15.87,-9.96 -7.15,0 -12.09,2.8 -14.7,8.51 -2.61,5.61 -3.87,20.22 -3.87,43.62l0 220.16c0,20.5 1.26,34.14 3.87,40.62 2.61,6.48 7.74,9.77 15.48,9.77 8.51,0 14.22,-3.68 17.31,-11.03 3,-7.35 4.55,-21.76 4.55,-43.14l0 -54.36 -23.22 0 0 -69.64 139.29 0 0 246.07 -75.16 0 -11.02 -32.88c-8.13,14.21 -18.38,24.85 -30.67,32.01 -12.38,7.16 -26.98,10.74 -43.72,10.74 -20.02,0 -38.69,-4.84 -56.19,-14.61 -17.42,-9.77 -30.67,-21.76 -39.66,-36.17 -9.1,-14.32 -14.71,-29.41 -17.03,-45.17 -2.22,-15.77 -3.38,-39.47 -3.38,-71l0 -136.39c0,-43.81 2.32,-75.64 7.06,-95.47 4.74,-19.92 18.28,-38.11 40.62,-54.65 22.35,-16.54 51.27,-24.76 86.77,-24.76 34.92,0 63.84,7.16 86.86,21.57 23.02,14.41 38.11,31.44 45.07,51.17 6.97,19.83 10.45,48.46 10.45,86.18l0 19.83z"/>
  <path id="3" class="fil1" d="M1216.9 1145.14l-119.55 0 0 -79.7c0,-23.22 -1.26,-37.63 -3.77,-43.43 -2.52,-5.71 -8.13,-8.61 -16.74,-8.61 -9.67,0 -15.86,3.48 -18.47,10.45 -2.61,7.06 -3.97,22.15 -3.97,45.36l0 212.99c0,22.35 1.36,36.86 3.97,43.72 2.61,6.77 8.51,10.16 17.6,10.16 8.8,0 14.61,-3.39 17.32,-10.25 2.71,-6.77 4.06,-22.83 4.06,-48.08l0 -57.74 119.55 0 0 17.89c0,47.59 -3.38,81.35 -10.06,101.18 -6.67,19.92 -21.57,37.34 -44.49,52.33 -23.02,14.99 -51.27,22.44 -84.93,22.44 -34.91,0 -63.74,-6.29 -86.47,-18.96 -22.63,-12.67 -37.72,-30.18 -45.07,-52.62 -7.36,-22.44 -11.03,-56.1 -11.03,-101.08l0 -134.06c0,-33.08 1.16,-57.85 3.38,-74.39 2.33,-16.54 9,-32.5 20.32,-47.78 11.22,-15.28 26.79,-27.37 46.72,-36.17 19.92,-8.81 42.85,-13.16 68.77,-13.16 35.11,0 64.13,6.77 87.05,20.41 22.83,13.54 37.82,30.47 45.08,50.78 7.16,20.31 10.73,51.85 10.73,94.7l0 43.62z"/>
 </g>
</svg>
